<svg width="960" height="720" viewBox="0 0 960 720" fill="none" xmlns="http://www.w3.org/2000/svg">
  <rect width="960" height="720" rx="36" fill="#F7F8FB"/>
  <rect x="48" y="48" width="864" height="624" rx="28" fill="url(#paint0_linear)" stroke="#DEE4EE"/>
  <path d="M108 146C108 117.281 131.281 94 160 94H800C828.719 94 852 117.281 852 146V210H108V146Z" fill="#CA1056"/>
  <rect x="132" y="138" width="124" height="16" rx="8" fill="#FFFFFF" fill-opacity="0.9"/>
  <rect x="132" y="168" width="188" height="14" rx="7" fill="#FFFFFF" fill-opacity="0.72"/>
  <rect x="132" y="244" width="336" height="306" rx="24" fill="#FFFFFF" stroke="#D8DEEA"/>
  <rect x="162" y="276" width="120" height="16" rx="8" fill="#1F4F8F" fill-opacity="0.12"/>
  <rect x="162" y="316" width="254" height="18" rx="9" fill="#1A1D23" fill-opacity="0.86"/>
  <rect x="162" y="352" width="202" height="14" rx="7" fill="#6F7785" fill-opacity="0.5"/>
  <rect x="162" y="392" width="226" height="14" rx="7" fill="#6F7785" fill-opacity="0.42"/>
  <rect x="162" y="444" width="98" height="36" rx="18" fill="#CA1056" fill-opacity="0.1"/>
  <rect x="272" y="444" width="118" height="36" rx="18" fill="#1F4F8F" fill-opacity="0.12"/>
  <rect x="504" y="244" width="324" height="202" rx="24" fill="#FFFFFF" stroke="#D8DEEA"/>
  <circle cx="582" cy="336" r="58" fill="#1F4F8F" fill-opacity="0.12"/>
  <path d="M580 302C560.118 302 544 318.118 544 338C544 357.882 560.118 374 580 374C599.882 374 616 357.882 616 338C616 318.118 599.882 302 580 302Z" fill="#CA1056" fill-opacity="0.88"/>
  <path d="M580 314C593.255 314 604 324.745 604 338C604 351.255 593.255 362 580 362C566.745 362 556 351.255 556 338C556 324.745 566.745 314 580 314Z" fill="#FFFFFF" fill-opacity="0.92"/>
  <rect x="666" y="288" width="96" height="18" rx="9" fill="#1A1D23" fill-opacity="0.82"/>
  <rect x="666" y="324" width="124" height="12" rx="6" fill="#6F7785" fill-opacity="0.48"/>
  <rect x="666" y="350" width="108" height="12" rx="6" fill="#6F7785" fill-opacity="0.38"/>
  <rect x="504" y="472" width="324" height="78" rx="18" fill="#FFFFFF" stroke="#D8DEEA"/>
  <rect x="534" y="494" width="184" height="14" rx="7" fill="#1A1D23" fill-opacity="0.7"/>
  <rect x="534" y="520" width="244" height="12" rx="6" fill="#6F7785" fill-opacity="0.36"/>
  <path d="M788 491L812 515L788 539" stroke="#CA1056" stroke-width="8" stroke-linecap="round" stroke-linejoin="round"/>
  <path d="M388 566H684" stroke="#1F4F8F" stroke-opacity="0.16" stroke-width="18" stroke-linecap="round"/>
  <path d="M154 572H314" stroke="#CA1056" stroke-opacity="0.2" stroke-width="14" stroke-linecap="round"/>
  <defs>
    <linearGradient id="paint0_linear" x1="48" y1="48" x2="912" y2="672" gradientUnits="userSpaceOnUse">
      <stop stop-color="#FFFFFF"/>
      <stop offset="1" stop-color="#F2F5FA"/>
    </linearGradient>
  </defs>
</svg>
